HIERARCHY
ROOT Hips
{
	OFFSET 0.00000 0.00000 0.00000
	CHANNELS 6 Xposition Yposition Zposition Yrotation Zrotation Xrotation 
	JOINT Lumbar
	{
		OFFSET 0 0 0
		CHANNELS 3 Zrotation Xrotation Yrotation
		JOINT Neck
		{
			OFFSET 0.00 0.2701 0.00
			CHANNELS 3 Zrotation Xrotation Yrotation
			End Site
			{
				OFFSET 0.00 0.1379 0.00
			}
		}
		JOINT RightShoulder
		{
			OFFSET 0.0119 0.2289 0.1181
			CHANNELS 3 Zrotation Xrotation Yrotation
			JOINT RightElbow
			{
				OFFSET 0.00 -0.1475 0.00
				CHANNELS 2 Zrotation Yrotation
				JOINT RightWrist
				{
					OFFSET 0.00 -0.1605 0.00
					CHANNELS 2 Zrotation Xrotation
					End Site
					{
						OFFSET 0.0040 -0.1068 0.0006
					}
				}
			}
		}
		JOINT LeftShoulder
		{
			OFFSET 0.0119 0.2289 -0.1181
			CHANNELS 3 Zrotation Xrotation Yrotation
			JOINT LeftElbow
			{
				OFFSET 0.00 -0.1475 0.00
				CHANNELS 2 Zrotation Yrotation
				JOINT LeftWrist
				{
					OFFSET 0.00 -0.1605 0.00
					CHANNELS 2 Zrotation Xrotation
					End Site
					{
						OFFSET 0.0040 -0.1068 -0.0006
					}
				}
			}
		}
	}
	JOINT RightHip
	{
		OFFSET 0.0316 -0.0424 0.0458
		CHANNELS 3 Zrotation Xrotation Yrotation
		JOINT RightKnee
		{
			OFFSET 0.00 -0.2438 0.00
			CHANNELS 1 Zrotation
			JOINT RightAnkle
			{
				OFFSET 0.00 -0.2449 0.00
				CHANNELS 3 Zrotation Xrotation Yrotation
				End Site
				{
					OFFSET 0.1237 -0.0542 0.0051
				}
			}
		}
	}
	JOINT LeftHip
	{
		OFFSET 0.0316 -0.0424 -0.0458
		CHANNELS 3 Zrotation Xrotation Yrotation
		JOINT LeftKnee
		{
			OFFSET 0.00 -0.2438 0.00
			CHANNELS 1 Zrotation
			JOINT LeftAnkle
			{
				OFFSET 0.00 -0.2449 0.00
				CHANNELS 3 Zrotation Xrotation Yrotation
				End Site
				{
					OFFSET 0.1237 -0.0542 -0.0051
				}
			}
		}
	}
}
MOTION
Frames: 28
Frame Time: 0.02
-0.45432 -0.00822 -0.02485 182.36782 -36.26857 -8.06225 41.68781 1.75906 -20.07245 9.27726 0.73614 -0.83079 -6.14932 -72.27024 -24.32913 34.42238 79.47889 10.35291 -5.11389 0.66454 4.35511 -62.418 98.95675 -94.28292 25.11055 1.93647 50.52214 1.08306 -13.84673 -28.09154 -6.40489 -1.46732 -1.36125 26.33364 13.30514 -6.16509 -42.40221 -8.51949 3.62717 2.62934
-0.46129 -0.00719 -0.02655 182.91149 -36.05088 -8.04788 41.3842 1.95926 -19.73648 9.26797 0.33878 -0.83079 -5.90184 -72.33925 -24.2522 34.2782 79.59371 10.09186 -4.98886 0.40265 4.57092 -62.43098 99.17925 -94.68368 25.17067 1.88926 48.80887 1.54969 -13.71881 -26.89467 -6.35479 -1.54036 -1.4001 28.92952 13.05741 -5.99796 -46.65904 -8.51383 3.82445 2.74001
-0.4676 -0.0063 -0.02793 183.52809 -35.88793 -7.92295 41.04262 2.10232 -19.33245 9.27141 -0.16147 -0.83079 -5.5801 -72.53242 -24.02694 34.08811 79.73228 9.68819 -4.84973 0.09141 4.78258 -62.45539 99.36405 -95.043 25.29327 1.84876 47.26465 1.97424 -13.16928 -25.7177 -6.30559 -1.65534 -1.46103 31.65259 12.58946 -5.70995 -50.44213 -8.40051 4.08215 2.87885
-0.4742 -0.00536 -0.02944 184.10784 -35.70516 -7.84498 40.72349 2.2689 -18.95162 9.26811 -0.62344 -0.83079 -5.30784 -72.67343 -23.86901 33.92564 79.85928 9.3579 -4.71773 -0.1878 4.99076 -62.48071 99.56178 -95.41259 25.38086 1.80484 45.64698 2.41196 -12.81616 -24.52493 -6.25729 -1.74978 -1.5112 34.30948 12.22662 -5.44135 -54.34487 -8.33698 4.30486 3.00066
-0.48083 -0.00438 -0.03102 184.70375 -35.50007 -7.77962 40.38117 2.44615 -18.60111 9.26794 -1.05282 -0.83079 -4.97478 -72.79819 -23.7176 33.73593 79.99 8.99325 -4.58423 -0.50684 5.22206 -62.48161 99.77912 -95.82017 25.49783 1.76139 44.00598 2.87612 -12.44057 -23.34485 -6.20343 -1.84943 -1.56385 37.02954 11.84181 -5.30664 -58.69897 -8.27058 4.55787 3.13957
-0.48724 -0.00351 -0.03237 185.28395 -35.35506 -7.66273 40.07862 2.58769 -18.17311 9.26521 -1.57316 -0.83079 -4.74837 -72.98585 -23.51629 33.59143 80.11859 8.66521 -4.45038 -0.75569 5.40299 -62.53469 99.94546 -96.13812 25.56927 1.71918 42.45689 3.2752 -12.0121 -22.14808 -6.1609 -1.94982 -1.6175 39.63626 11.44882 -4.87499 -61.97557 -8.1848 4.76281 3.24994
-0.4932 -0.00284 -0.03315 185.79268 -35.36009 -7.42458 39.89533 2.64188 -17.53635 9.24533 -2.32075 -0.83079 -4.8367 -73.31396 -23.19652 33.5844 80.23273 8.47806 -4.31334 -0.78883 5.45906 -62.74009 99.98608 -96.21794 25.48245 1.67627 41.12428 3.49899 -11.54063 -20.91332 -6.15169 -2.03411 -1.66416 41.91459 11.11213 -3.59573 -62.47404 -8.06519 4.81841 3.27307
-0.49897 -0.00227 -0.0337 186.28481 -35.4243 -7.13978 39.75358 2.66251 -16.82645 9.22407 -3.15543 -0.83079 -5.03347 -73.7013 -22.83294 33.62394 80.34358 8.33161 -4.17738 -0.75137 5.46248 -62.99557 99.97549 -96.20875 25.35037 1.63511 39.8788 3.65974 -11.02748 -19.66092 -6.15097 -2.12408 -1.71468 44.06782 10.77144 -2.03271 -61.88459 -7.93058 4.82393 3.26678
-0.50483 -0.00167 -0.03434 186.79098 -35.46307 -6.88014 39.5928 2.70025 -16.15744 9.20766 -3.94925 -0.83079 -5.17883 -74.06314 -22.50049 33.64116 80.45862 8.16309 -4.04407 -0.75271 5.48111 -63.22081 99.98412 -96.24073 25.24998 1.5947 38.59228 3.85267 -10.53823 -18.41075 -6.14821 -2.21028 -1.76262 46.26418 10.41549 -0.6404 -61.73293 -7.80733 4.85393 3.27516
-0.51066 -0.00099 -0.03505 187.27213 -35.4974 -6.59919 39.43109 2.72828 -15.45291 9.17264 -4.75304 -0.83079 -5.33187 -74.42348 -22.1189 33.662 80.56624 8.00456 -3.89621 -0.72768 5.53533 -63.47785 100.00807 -96.26877 25.10517 1.54734 37.3181 4.02847 -10.02735 -17.18609 -6.14827 -2.28261 -1.80313 48.52317 10.1203 0.92707 -61.80047 -7.66226 4.87934 3.27943
-0.51651 -0.00052 -0.03554 187.80069 -35.55455 -6.35391 39.28198 2.76915 -14.80691 9.17741 -5.55423 -0.83079 -5.49413 -74.79927 -21.82705 33.68656 80.68431 7.83692 -3.78013 -0.73985 5.50432 -63.6806 99.98908 -96.28375 25.04091 1.51561 36.03612 4.22652 -9.53951 -15.90301 -6.13131 -2.41015 -1.87441 50.62054 9.70504 2.20244 -61.16419 -7.55909 4.9009 3.28441
-0.52244 -0.00057 -0.0355 188.46181 -35.65809 -6.21143 39.15559 2.85534 -14.33194 9.27936 -6.33628 -0.83079 -5.66827 -75.20329 -21.83037 33.71384 80.86689 7.63317 -3.74239 -0.87456 5.23906 -63.71921 99.85856 -96.29043 25.2136 1.51914 34.71723 4.4931 -9.28406 -14.47383 -6.18392 -2.46436 -1.89999 52.29728 8.92104 2.5391 -58.80908 -7.58847 4.93055 3.30289
-0.5284 -0.00084 -0.03524 189.171 -35.78266 -6.10852 39.04123 2.95557 -13.92017 9.42364 -7.11034 -0.83079 -5.8459 -75.61989 -21.91999 33.743 81.05444 7.41974 -3.73807 -1.04848 4.89193 -63.70158 99.68783 -96.28618 25.46822 1.53939 33.38626 4.78603 -9.02986 -12.98613 -6.20122 -2.6114 -1.97768 53.81552 8.02455 2.58175 -55.79491 -7.65909 4.95691 3.32237
-0.53437 -0.00102 -0.03505 189.85977 -35.89878 -5.99249 38.92257 3.04861 -13.48561 9.55724 -7.88156 -0.83079 -6.01379 -76.03045 -21.94601 33.76871 81.21553 7.21205 -3.7249 -1.20249 4.59022 -63.71122 99.53924 -96.28314 25.68241 1.5573 32.05522 5.07253 -8.66801 -11.5158 -6.15142 -2.86827 -2.12007 55.40934 7.20577 2.80116 -53.10982 -7.70216 4.97978 3.33813
-0.54024 -0.00114 -0.03494 190.54321 -36.01246 -5.85351 38.79955 3.14391 -13.02411 9.65531 -8.68366 -0.83079 -6.21978 -76.44576 -22.07086 33.80601 81.47476 6.99994 -3.68625 -1.3627 4.25259 -63.71623 99.37241 -96.2926 25.90746 1.55442 30.74792 5.33327 -8.73967 -10.0766 -6.43537 -2.50096 -1.90111 56.98547 6.27463 2.85384 -50.25472 -7.77992 5.02054 3.36575
-0.54632 -0.00145 -0.03463 191.24783 -36.13526 -5.77326 38.68899 3.2382 -12.6338 9.83666 -9.41782 -0.83079 -6.34594 -76.85185 -22.01407 33.82025 81.53573 6.79433 -3.70706 -1.52049 3.97028 -63.71581 99.23485 -96.2749 26.13129 1.59711 29.3908 5.65488 -7.93041 -8.56792 -6.03774 -3.43386 -2.4325 58.56048 5.55066 3.17343 -47.62018 -7.79784 5.02574 3.37045
-0.55295 -0.00224 -0.03385 192.01223 -36.27948 -5.83768 38.60147 3.32687 -12.43246 10.24447 -9.97026 -0.83079 -6.24958 -77.24154 -21.40891 33.75983 81.00544 6.60856 -3.8971 -1.65899 3.86765 -63.72329 99.1868 -96.18301 26.3198 1.77612 27.86702 6.13709 -4.50759 -6.80422 -3.57359 -8.12056 -5.14838 60.18584 5.4287 4.35918 -45.68652 -7.62048 4.91764 3.30163
-0.55981 -0.00323 -0.03288 192.79389 -36.43174 -5.96126 38.52788 3.41378 -12.2993 10.73326 -10.4533 -0.83079 -6.0726 -77.61871 -20.62353 33.678 80.28338 6.42983 -4.14331 -1.79406 3.82264 -63.72549 99.16997 -96.06525 26.5065 1.99782 26.29896 6.67981 -0.23221 -4.98699 -0.45835 -14.07627 -8.59384 61.81188 5.51862 5.81157 -44.01578 -7.38557 4.77692 3.21166
-0.5666 -0.00415 -0.03197 193.5592 -36.57892 -6.06348 38.45271 3.50168 -12.13035 11.18062 -10.9652 -0.83079 -5.93261 -77.99365 -19.93704 33.61248 79.67713 6.24763 -4.35524 -1.93371 3.74681 -63.72356 99.14005 -95.96062 26.70231 2.19023 24.77185 7.19627 3.53406 -3.24538 2.22917 -19.33077 -11.62354 63.43057 5.51008 7.10293 -42.27611 -7.18983 4.66202 3.13815
-0.57326 -0.00499 -0.03116 194.3622 -36.73229 -6.14487 38.35622 3.59057 -11.98455 11.64944 -11.4886 -0.83079 -5.79075 -78.40349 -19.17961 33.51876 78.95026 6.06514 -4.60553 -2.06418 3.68705 -63.74636 99.10458 -95.84854 26.86677 2.42438 23.15683 7.7098 7.81395 -1.2859 5.46464 -25.12027 -15.01195 65.07971 5.5071 8.55249 -40.30049 -6.93943 4.50122 3.03598
-0.58024 -0.00603 -0.03008 195.09004 -36.87518 -6.28173 38.30941 3.67515 -11.80504 12.09168 -11.97113 -0.83079 -5.6343 -78.73625 -18.5288 33.47932 78.42874 5.88646 -4.78855 -2.20962 3.60932 -63.71826 99.08794 -95.74753 27.094 2.58227 21.71409 8.24168 11.22652 0.23267 7.72529 -30.0879 -17.82404 66.65974 5.54392 9.73965 -38.886 -6.79008 4.42751 2.98816
-0.58798 -0.00758 -0.02837 195.6085 -36.97979 -6.56902 38.37772 3.76197 -11.52387 12.44523 -12.3626 -0.83079 -5.45249 -78.86918 -18.19352 33.58961 78.52336 5.70473 -4.77437 -2.42063 3.46164 -63.54133 99.12 -95.66768 27.50311 2.51267 20.762 8.82402 12.02556 0.5108 7.03036 -32.5292 -18.87423 68.11636 5.64196 10.13709 -38.97478 -6.92085 4.60927 3.09832
-0.59606 -0.00932 -0.02639 196.0511 -37.07453 -6.90718 38.49862 3.8416 -11.20521 12.76818 -12.71468 -0.83079 -5.26076 -78.92274 -17.97645 33.75651 78.8306 5.52904 -4.69006 -2.64167 3.2953 -63.31535 99.16817 -95.60108 27.97316 2.36605 19.98421 9.41945 11.91773 0.34422 5.35253 -34.08132 -19.31321 69.49093 5.77202 10.26228 -39.61933 -7.1569 4.87842 3.26328
-0.60403 -0.01098 -0.0245 196.52525 -37.17894 -7.21485 38.60802 3.91586 -10.89729 13.10198 -13.08142 -0.83079 -5.07521 -79.00644 -17.71881 33.90069 79.03929 5.35814 -4.63603 -2.84334 3.14221 -63.11853 99.20782 -95.54104 28.41008 2.25874 19.12387 9.99971 12.23981 0.38825 4.1914 -36.01474 -20.03193 70.86036 5.88686 10.51402 -40.00087 -7.35386 5.10312 3.40149
-0.61181 -0.01261 -0.02273 197.00798 -37.26307 -7.5579 38.66695 4.02775 -10.61582 13.45156 -13.45861 -0.83079 -4.87511 -79.11605 -17.39595 34.03036 79.25028 5.15485 -4.59024 -3.10988 2.97159 -62.89286 99.25835 -95.43427 28.87151 2.13443 18.27569 10.62277 12.54306 0.40104 2.75214 -38.12062 -20.78538 72.4115 6.0148 10.76461 -40.43486 -7.51445 5.34706 3.54722
-0.62005 -0.01434 -0.02064 197.46012 -37.38535 -7.83587 38.84161 4.05801 -10.27265 13.75993 -13.8066 -0.83079 -4.70987 -79.15139 -17.24371 34.20532 79.50837 5.02141 -4.51049 -3.24068 2.83147 -62.71522 99.28365 -95.41914 29.29438 2.02708 17.44463 11.15682 12.62588 0.36908 1.65691 -39.59958 -21.28982 73.56133 6.11661 10.94742 -40.88866 -7.77329 5.5716 3.69
-0.62945 -0.01641 -0.01785 197.79716 -37.62902 -7.94527 39.3371 3.87885 -9.7397 13.96122 -14.0744 -0.83079 -4.58806 -79.01564 -17.49121 34.47893 79.85507 5.07008 -4.34881 -3.01857 2.78836 -62.68554 99.28486 -95.73327 29.6109 1.98203 16.62063 11.45809 12.61532 0.34044 1.68262 -39.91533 -21.44866 73.65034 6.17049 11.02808 -41.25618 -8.30576 5.72569 3.81619
-0.6393 -0.01856 -0.01474 198.114 -37.90852 -7.98333 39.94429 3.61577 -9.15035 14.12147 -14.31576 -0.83079 -4.50862 -78.8059 -17.91103 34.79774 80.24086 5.19015 -4.1561 -2.65394 2.77549 -62.70467 99.24959 -96.12488 29.88229 1.95726 15.81185 11.66465 12.36498 0.27054 2.09145 -39.56971 -21.34413 73.33229 6.19083 11.04633 -41.62315 -8.92843 5.85654 3.9367
